# xmcd
#
# Track frame offsets: 
#        150
#        16345
#        40835
#        53200
#
# Disc length: 1014 seconds
#
# Revision: 0
# Processed by: cddbd v1.5.2PL0 Copyright (c) Steve Scherf et al.
# Submitted via: ExactAudioCopyFreeDBPlugin 1.0
#
DISCID=2903f404
DTITLE=Kahulanui - From Hawai'i to New York
DYEAR=2014
DGENRE=Country
TTITLE0=Waikiki Chickadee
TTITLE1=Pua Ahihi
TTITLE2=On The Beach At Waikiki
TTITLE3=Leimomi
EXTD=
EXTT0=
EXTT1=
EXTT2=
EXTT3=
PLAYORDER=
